<svg xmlns="http://www.w3.org/2000/svg" width="402.88" height="162" viewBox="0 0 402.88 162" role="img"><title>Quill</title><defs><linearGradient id="lsel" x1="0" y1="0" x2="0" y2="1"><stop offset="0" stop-color="#6FA2FF"/><stop offset="1" stop-color="#2F6BFF"/></linearGradient><linearGradient id="lglass" x1="0" y1="0" x2="1" y2="1"><stop offset="0" stop-color="#8E9BFF" stop-opacity="0.80"/><stop offset="1" stop-color="#9B7BFF" stop-opacity="0.72"/></linearGradient><mask id="lnotch" maskUnits="userSpaceOnUse" x="0" y="0" width="1024" height="1024"><rect width="1024" height="1024" fill="#fff"/><path d="M640 394 L566 420 L640 416 ZM620 579 L546 605 L620 601 ZM418 514 L492 540 L418 536 Z" fill="#000"/></mask></defs><g transform="translate(-35.64 -33.63) scale(0.25084)"><rect x="196" y="556" width="632" height="132" rx="26" fill="url(#lsel)"/><rect x="189" y="520" width="14" height="180" rx="7" fill="#3D78FF"/><circle cx="196" cy="520" r="30" fill="#3D78FF"/><rect x="821" y="544" width="14" height="180" rx="7" fill="#3D78FF"/><circle cx="828" cy="724" r="30" fill="#3D78FF"/><g transform="translate(540 478) rotate(40.107) scale(0.93) translate(-512 -512)"><path d="M512 150 C590 230 640 350 626 470 C612 590 560 690 520 742 C470 690 420 610 424 520 C428 380 462 230 512 150 Z" fill="url(#lglass)" mask="url(#lnotch)"/><path d="M512 150 C590 230 640 350 626 470 C612 590 560 690 520 742 C470 690 420 610 424 520 C428 380 462 230 512 150 Z" fill="none" stroke="#14125A" stroke-opacity="0.35" stroke-width="6"/><path d="M506 190 L518 190 L524 760 L512 880 L500 760 Z" fill="#3B3FC9"/></g></g><g transform="translate(220.08 7.50)"><path d="M51.5 115.5H43.1V93.5Q41.0 97.3 36.75 99.5Q32.5 101.7 27.3 101.7Q19.400000000000002 101.7 14.350000000000001 97.80000000000001Q9.3 93.9 6.8500000000000005 87.6Q4.4 81.3 4.4 74.0Q4.4 66.69999999999999 6.8500000000000005 60.39999999999999Q9.3 54.099999999999994 14.350000000000001 50.199999999999996Q19.400000000000002 46.3 27.3 46.3Q32.7 46.3 36.95 48.65Q41.2 51.0 43.6 55.599999999999994L43.7 47.5H51.5ZM28.1 93.7Q35.1 93.7 39.1 88.7Q43.1 83.7 43.1 74.0Q43.1 64.19999999999999 39.05 59.24999999999999Q35.0 54.3 28.1 54.3Q21.200000000000003 54.3 17.200000000000003 59.49999999999999Q13.200000000000001 64.69999999999999 13.200000000000001 74.0Q13.200000000000001 83.3 17.200000000000003 88.5Q21.200000000000003 93.7 28.1 93.7Z M80.4 101.7Q72.5 101.7 67.75 96.35Q63.0 91.0 63.0 81.6V47.5H71.4V79.3Q71.4 87.0 74.15 90.65Q76.9 94.3 82.6 94.3Q88.9 94.3 92.5 90.25Q96.1 86.2 96.1 79.1V47.5H104.5V100.5H96.5V91.9Q92.1 101.7 80.4 101.7Z M116.0 100.5V47.5H124.4V100.5ZM115.80000000000001 39.199999999999996V29.39999999999999H124.60000000000001V39.199999999999996Z M146.3 100.5Q141.70000000000002 100.5 138.8 98.1Q135.9 95.7 135.9 90.5V29.5H144.3V89.8Q144.3 93.1 147.60000000000002 93.1H152.20000000000002V100.5Z M168.5 100.5Q163.9 100.5 161.0 98.1Q158.1 95.7 158.1 90.5V29.5H166.5V89.8Q166.5 93.1 169.8 93.1H174.4V100.5Z" fill="#0a0a0a"/></g></svg>
